<svg xmlns="http://www.w3.org/2000/svg" viewBox="476.64 526.09 609.64 626.3">
  <path d="M0 0 C4.94287874 4.75248308 8.9778366 9.81138884 12.6328125 15.62475586 C13.18146973 16.49028076 13.18146973 16.49028076 13.74121094 17.37329102 C18.43458626 24.8854454 22.23910347 32.47133448 25.0703125 40.87475586 C25.30508301 41.57028564 25.53985352 42.26581543 25.78173828 42.98242188 C29.68203866 55.37186605 29.92296459 67.61523984 29.89160156 80.46582031 C29.89431646 82.34470759 29.89788017 84.2235938 29.90222168 86.10247803 C29.91129054 91.17495371 29.90782374 96.24734746 29.90146351 101.31982446 C29.89637265 106.64991988 29.9011037 111.98000865 29.90423584 117.31010437 C29.90786747 126.26159921 29.90309847 135.21306097 29.89355469 144.16455078 C29.88268169 154.48122194 29.88619059 164.79781395 29.8972075 175.11448318 C29.90631523 184.00236633 29.90754837 192.8902258 29.90233016 201.77811211 C29.89922828 207.07301292 29.89875151 212.36787668 29.90540314 217.66277504 C29.91122652 222.64594811 29.90708936 227.62902032 29.89561462 232.61218262 C29.8929941 234.4296928 29.89368786 236.24721163 29.89813995 238.06471825 C29.95982583 265.83036365 24.36426037 291.91779089 7.6328125 314.62475586 C7.045 315.42397461 6.4571875 316.22319336 5.8515625 317.04663086 C4.15710673 319.28023165 2.4115183 321.45782474 0.6328125 323.62475586 C0.06433594 324.34018555 -0.50414062 325.05561523 -1.08984375 325.79272461 C-10.42643584 336.99267053 -22.54292899 344.95308804 -35.3671875 351.62475586 C-36.24375 352.09526367 -37.1203125 352.56577148 -38.0234375 353.05053711 C-43.64227935 355.85128698 -49.45742141 357.65709979 -55.4921875 359.31225586 C-56.57342896 359.61619263 -56.57342896 359.61619263 -57.67651367 359.92626953 C-73.15574336 363.93271738 -89.25338667 364.00210316 -105.1328125 364.25756836 C-107.3674668 364.29930752 -109.6021112 364.34157926 -111.83674622 364.38433838 C-117.84728564 364.49621466 -123.85796368 364.59554913 -129.86879349 364.69042206 C-133.63276216 364.75000239 -137.39668827 364.81185564 -141.16061401 364.87408447 C-178.40502476 365.48311488 -215.65064052 365.88292789 -252.90000916 365.98720551 C-256.39966101 365.9996491 -259.89919932 366.0194189 -263.39880371 366.0413208 C-311.24587249 366.32308596 -311.24587249 366.32308596 -330.3671875 361.62475586 C-331.6157251 361.3219873 -332.8642627 361.01921875 -334.15063477 360.70727539 C-337.03057604 359.91536363 -339.81060831 359.01801829 -342.6171875 357.99975586 C-343.59131592 357.65912109 -344.56544434 357.31848633 -345.5690918 356.9675293 C-367.24542165 349.16187255 -388.16007001 338.08658 -405.3671875 322.62475586 C-405.93888672 322.12250488 -406.51058594 321.62025391 -407.09960938 321.1027832 C-416.27750011 313.01602047 -424.26920341 304.5909161 -431.3671875 294.62475586 C-431.78806641 294.0361377 -432.20894531 293.44751953 -432.64257812 292.84106445 C-463.3337967 249.43255524 -477.16084827 197.34418412 -468.58984375 144.60913086 C-462.8996333 112.51621671 -449.23719565 81.76697745 -428.3671875 56.62475586 C-427.31337891 55.26350586 -427.31337891 55.26350586 -426.23828125 53.87475586 C-425.51769531 52.94663086 -424.79710937 52.01850586 -424.0546875 51.06225586 C-423.39855469 50.2153418 -422.74242187 49.36842773 -422.06640625 48.49584961 C-421.50566406 47.87838867 -420.94492187 47.26092773 -420.3671875 46.62475586 C-419.7071875 46.62475586 -419.0471875 46.62475586 -418.3671875 46.62475586 C-418.10164062 46.03307617 -417.83609375 45.44139648 -417.5625 44.83178711 C-415.54466688 41.10604949 -412.43381799 38.50163476 -409.3671875 35.62475586 C-408.53767578 34.8397168 -408.53767578 34.8397168 -407.69140625 34.03881836 C-397.5341537 24.80495241 -386.09556984 16.71529103 -374.3671875 9.62475586 C-373.02829468 8.80841675 -373.02829468 8.80841675 -371.66235352 7.97558594 C-348.31120496 -5.98635925 -322.38125459 -13.6894172 -295.9296875 -19.18774414 C-294.86995728 -19.40895935 -294.86995728 -19.40895935 -293.78881836 -19.63464355 C-276.74651374 -23.15608446 -259.78205821 -24.78045166 -242.4296875 -25.75024414 C-241.38613098 -25.81016541 -240.34257446 -25.87008667 -239.26739502 -25.93182373 C-200.20124027 -28.15631547 -161.0842242 -29.53439244 -121.98647785 -31.07375526 C-116.68512644 -31.28267787 -111.38400452 -31.49637504 -106.08300781 -31.71411133 C-103.78450666 -31.80692067 -101.4860042 -31.89969777 -99.1875 -31.99243164 C-98.2272995 -32.03296661 -97.267099 -32.07350159 -96.27780151 -32.11526489 C-59.04860225 -33.59311851 -27.8167612 -25.88010006 0 0 Z M-375.23046875 93.23364258 C-380.31134971 98.91944561 -384.44251835 105.1066785 -388.3671875 111.62475586 C-388.7605127 112.25913574 -389.15383789 112.89351562 -389.55908203 113.54711914 C-399.14515144 129.09540038 -405.51056568 145.81083603 -409.3671875 163.62475586 C-409.57988281 164.47166992 -409.79257812 165.31858398 -410.01171875 166.19116211 C-419.02792572 202.45058439 -409.05951436 243.08869408 -390.296875 274.55444336 C-370.61977924 305.862535 -342.89437063 328.81316651 -307.3671875 339.62475586 C-306.63306641 339.85146973 -305.89894531 340.07818359 -305.14257812 340.31176758 C-280.46483843 347.78227607 -255.78333682 349.23465126 -230.3671875 345.62475586 C-229.68221191 345.5282373 -228.99723633 345.43171875 -228.29150391 345.33227539 C-193.67677849 340.26122228 -158.10499235 328.46554708 -130.3671875 306.62475586 C-129.41457031 305.89772461 -128.46195313 305.17069336 -127.48046875 304.42163086 C-123.83809963 301.62456549 -123.83809963 301.62456549 -120.3671875 298.62475586 C-120.3671875 297.96475586 -120.3671875 297.30475586 -120.3671875 296.62475586 C-119.49320313 296.23803711 -119.49320313 296.23803711 -118.6015625 295.84350586 C-99.02528321 285.16553534 -84.45355204 254.09289556 -78.4296875 233.68725586 C-76.59561821 227.05882542 -75.08551519 220.46904669 -74.3671875 213.62475586 C-74.29483887 212.93639648 -74.22249023 212.24803711 -74.14794922 211.53881836 C-72.25003991 191.98409565 -74.61278908 173.0569395 -81.3671875 154.62475586 C-81.71265625 153.58061523 -82.058125 152.53647461 -82.4140625 151.46069336 C-89.35655806 131.58905751 -101.1574448 114.04041561 -116.3671875 99.62475586 C-117.1715625 98.79975586 -117.9759375 97.97475586 -118.8046875 97.12475586 C-131.32272741 84.91203399 -144.96373401 75.73966356 -160.3671875 67.62475586 C-161.24785889 67.15924316 -162.12853027 66.69373047 -163.03588867 66.21411133 C-170.68066399 62.27525906 -178.48106405 59.0750076 -186.5546875 56.12475586 C-187.20170624 55.88797119 -187.84872498 55.65118652 -188.51535034 55.40722656 C-201.24254662 50.77936746 -214.06423493 47.21677445 -227.3671875 44.62475586 C-228.24568359 44.44976563 -229.12417969 44.27477539 -230.02929688 44.09448242 C-285.75560868 33.41043251 -336.97200742 52.41981082 -375.23046875 93.23364258 Z " transform="matrix(0.9999999999999999, 0, 0, 0.9999999999999999, 1056.3671875, 558.3752441406249)" style="fill: rgb(102, 38, 116);"/>
  <path d="M0 0 C6.10616423 4.73367777 10.79072118 9.64806521 12.703125 17.3203125 C13.89220922 27.78915707 12.48697347 36.64837107 6.078125 45.1328125 C0.49573426 51.06585593 -6.87426569 53.97176389 -14.921875 54.38671875 C-23.45399109 54.14815629 -30.12954038 50.559632 -36.046875 44.5078125 C-41.62866216 36.60028069 -44.02792334 29.67059439 -42.796875 19.9453125 C-41.06322511 11.66742131 -36.51299494 5.54249958 -29.609375 0.7578125 C-21.5529926 -4.29352495 -8.22812169 -5.11574522 0 0 Z " transform="matrix(0.9999999999999999, 0, 0, 0.9999999999999999, 782.2968749999998, 702.6796875)" style="fill: rgb(254, 176, 7);"/>
  <path d="M0 0 C7.90271208 6.95116104 12.184347 13.91651507 13.328125 24.5234375 C13.89622061 35.26560911 11.51338314 44.31904503 4.9765625 52.99609375 C-1.34537634 59.63690231 -12.05990437 64.4998517 -21.0859375 65.68359375 C-31.93560606 65.63486769 -41.78882519 62.87341319 -50.0859375 55.68359375 C-57.4501292 47.40432497 -61.89487855 37.54441827 -61.40234375 26.375 C-60.04848292 14.85882576 -54.18316826 4.89305923 -45.0859375 -2.31640625 C-29.91803657 -11.81524122 -14.04620504 -11.22017574 0 0 Z " transform="matrix(0.9999999999999999, 0, 0, 0.9999999999999999, 873.0859375, 741.31640625)" style="fill: rgb(254, 176, 7);"/>
  <path d="M0 0 C3.55181302 1.97271593 6.21350478 4.02191761 8.9765625 6.9921875 C19.47457831 18.02488768 30.05645525 26.9951004 43 35 C44.0211792 35.64485352 44.0211792 35.64485352 45.06298828 36.30273438 C73.35214606 54.1489275 104.0374997 63.22496424 136.47509766 70.10498047 C175.08317488 78.2959042 210.96666504 91.28581659 233.51953125 125.91796875 C245.69072479 145.42032221 249.56835479 168.29909658 244.625 190.62597656 C241.27394512 203.35474909 234.41272151 213.0600001 225 222 C224.34386719 222.67417969 223.68773437 223.34835937 223.01171875 224.04296875 C208.93157944 237.70100538 189.4736116 240.64583719 170.73730469 240.46411133 C141.35731345 239.6916705 112.1369033 230.07278001 87 215 C86.38511719 214.63132812 85.77023437 214.26265625 85.13671875 213.8828125 C73.76370051 206.92827721 63.73602043 198.04992503 54 189 C53.33484375 188.38898438 52.6696875 187.77796875 51.984375 187.1484375 C46.1300856 181.55592527 41.2957031 175.21295382 36.38916016 168.79931641 C35.06392106 167.08279406 33.71527241 165.38842531 32.35546875 163.69921875 C26.84653863 156.80754822 22.19539883 149.67670478 18.01953125 141.890625 C16.94901989 139.90546216 15.85073348 137.93729725 14.75 135.96875 C-7.24686302 96.16512408 -13.80368223 50.63061407 -3.79956055 6.31713867 C-2.92074973 3.77033151 -1.71842233 2.05801036 0 0 Z " transform="matrix(0.9999999999999999, 0, 0, 0.9999999999999999, 484.99999999999994, 908.9999999999999)" style="fill: rgb(102, 38, 116);"/>
  <path d="M0 0 C0.88779144 -0.00361542 1.77558289 -0.00723083 2.6902771 -0.01095581 C21.09552244 0.25770363 38.30125199 8.9413861 51.453125 21.52734375 C63.86901615 34.47202072 70.88078907 50.26021666 70.58862305 68.36791992 C69.65528292 90.48028057 60.45630211 108.89816217 46.18359375 125.35546875 C45.508125 126.18820312 44.83265625 127.0209375 44.13671875 127.87890625 C33.92714406 140.04595579 20.13125681 148.12568463 6.18359375 155.35546875 C5.58643555 155.66967773 4.98927734 155.98388672 4.37402344 156.30761719 C-12.18747627 164.91445314 -30.31252449 169.83729658 -48.63720703 172.98095703 C-50.57414951 173.31383511 -52.5062734 173.67448358 -54.4375 174.0390625 C-79.36244287 178.29597265 -101.91529104 174.85244058 -122.81640625 160.41796875 C-137.04740402 149.44159379 -145.96463639 133.85821943 -149.41015625 116.3359375 C-152.31161546 92.23404338 -142.16715148 69.47272855 -127.59423828 50.90625 C-112.09052117 31.72298402 -90.15432748 18.37111566 -66.61328125 11.37890625 C-65.75540009 11.12378265 -64.89751892 10.86865906 -64.01364136 10.60580444 C-55.02022104 8.01093252 -45.92431387 6.14222566 -36.71728516 4.48486328 C-33.94482088 3.98108921 -31.17999921 3.44457355 -28.4140625 2.90625 C-18.92081499 1.12802366 -9.66913436 0.03183498 0 0 Z " transform="matrix(0.9999999999999999, 0, 0, 0.9999999999999999, 985.8164062499998, 976.6445312499999)" style="fill: rgb(102, 38, 116);"/>
</svg>